<svg xmlns="http://www.w3.org/2000/svg" viewBox="0 0 512 512" style="enable-background:new 0 0 512 512" xml:space="preserve"><circle style="fill:#24d3b5" cx="256" cy="256" r="256"/><circle style="fill:#b079d8" cx="256" cy="255.076" r="234"/><path style="fill:#966cba" d="M295.769 449.965a232.735 232.735 0 0 0 44.895 23.322c-26.253 10.196-54.801 15.789-84.663 15.789-129.235 0-234-104.765-234-234s104.765-234 234-234c29.863 0 58.411 5.594 84.663 15.789a232.764 232.764 0 0 0-44.895 23.322c-33.596 22.375-61.074 53.207-79.382 89.455-16.035 31.679-25.06 67.503-25.06 105.434 0 55.915 19.623 107.25 52.338 147.498a235.101 235.101 0 0 0 52.104 47.391z"/><circle style="fill:#32314b" cx="256" cy="255.076" r="198.87"/><path style="fill:#27273d" d="M295.769 449.965A199.864 199.864 0 0 1 256 453.943c-109.824 0-198.867-89.031-198.867-198.867S146.176 56.21 256 56.21c13.617 0 26.921 1.371 39.769 3.978-33.596 22.375-61.074 53.207-79.382 89.455-16.035 31.679-25.06 67.503-25.06 105.434 0 55.915 19.623 107.25 52.338 147.498a235.121 235.121 0 0 0 52.104 47.39z"/><path style="fill:#fe4583" d="M390.531 165.382c-32.272-32.272-84.594-32.272-116.865 0l-6.159 6.159c-6.355 6.355-16.658 6.355-23.013 0l-6.159-6.159c-32.271-32.271-84.594-32.271-116.865 0s-32.271 84.594 0 116.865l17.666 17.666 97.693 97.693c10.588 10.588 27.756 10.588 38.344 0l97.693-97.693 17.666-17.666c32.27-32.271 32.27-84.593-.001-116.865z"/><path style="fill:#ea2d88" d="M243.665 402.574a26.767 26.767 0 0 1-6.831-4.97l-97.689-97.689-17.673-17.673c-16.135-16.135-24.202-37.284-24.202-58.433 0-21.138 8.067-42.287 24.202-58.422 25.673-25.684 64.049-30.933 94.915-15.745-16.035 31.679-25.06 67.503-25.06 105.434 0 55.915 19.622 107.25 52.338 147.498z"/><path style="fill:#fff" d="M322.905 181.86h27.137v27.137h-27.137zM295.769 208.997h27.137v27.137h-27.137zM350.042 208.997h27.137v27.137h-27.137z"/></svg>